<svg width="1340" height="780" viewBox="0 0 1340 780" fill="none" xmlns="http://www.w3.org/2000/svg">
<g clip-path="url(#clip0_2666_1589)">
<rect width="1340" height="780" fill="#C9CED9"/>
<g filter="url(#filter0_d_2666_1589)">
<g clip-path="url(#clip1_2666_1589)">
<rect x="30" y="30" width="1280" height="720" rx="25" fill="#0F123F"/>
<rect width="180" height="720" transform="translate(30 40)" fill="#0F123F"/>
<rect x="40" y="153" width="160" height="35" rx="5" fill="#0F123F"/>
<path d="M50.0001 171.167H47.3334C47.1566 171.167 46.987 171.237 46.862 171.362C46.737 171.487 46.6667 171.657 46.6667 171.833V177.167C46.6667 177.343 46.737 177.513 46.862 177.638C46.987 177.763 47.1566 177.833 47.3334 177.833H50.0001C50.1769 177.833 50.3465 177.763 50.4715 177.638C50.5965 177.513 50.6667 177.343 50.6667 177.167V171.833C50.6667 171.657 50.5965 171.487 50.4715 171.362C50.3465 171.237 50.1769 171.167 50.0001 171.167ZM49.3334 176.5H48.0001V172.5H49.3334V176.5ZM60.6667 168.5H58.0001C57.8233 168.5 57.6537 168.57 57.5287 168.695C57.4037 168.82 57.3334 168.99 57.3334 169.167V177.167C57.3334 177.343 57.4037 177.513 57.5287 177.638C57.6537 177.763 57.8233 177.833 58.0001 177.833H60.6667C60.8436 177.833 61.0131 177.763 61.1382 177.638C61.2632 177.513 61.3334 177.343 61.3334 177.167V169.167C61.3334 168.99 61.2632 168.82 61.1382 168.695C61.0131 168.57 60.8436 168.5 60.6667 168.5ZM60.0001 176.5H58.6667V169.833H60.0001V176.5ZM55.3334 163.167H52.6667C52.4899 163.167 52.3204 163.237 52.1953 163.362C52.0703 163.487 52.0001 163.657 52.0001 163.833V177.167C52.0001 177.343 52.0703 177.513 52.1953 177.638C52.3204 177.763 52.4899 177.833 52.6667 177.833H55.3334C55.5102 177.833 55.6798 177.763 55.8048 177.638C55.9298 177.513 56.0001 177.343 56.0001 177.167V163.833C56.0001 163.657 55.9298 163.487 55.8048 163.362C55.6798 163.237 55.5102 163.167 55.3334 163.167ZM54.6667 176.5H53.3334V164.5H54.6667V176.5Z" fill="white"/>
<path d="M77.9395 175H76.4102L75.6543 172.861H72.3496L71.623 175H70.0996L73.2461 166.598H74.8164L77.9395 175ZM75.2852 171.725L74.1191 168.373C74.084 168.264 74.0469 168.088 74.0078 167.846H73.9844C73.9492 168.068 73.9102 168.244 73.8672 168.373L72.7129 171.725H75.2852ZM84.291 175H82.9316V171.619C82.9316 170.498 82.5352 169.938 81.7422 169.938C81.3281 169.938 80.9863 170.094 80.7168 170.406C80.4473 170.715 80.3125 171.105 80.3125 171.578V175H78.9473V169H80.3125V169.996H80.3359C80.7852 169.238 81.4336 168.859 82.2812 168.859C82.9336 168.859 83.4316 169.072 83.7754 169.498C84.1191 169.92 84.291 170.531 84.291 171.332V175ZM90.5605 175H89.2422V174.062H89.2188C88.8047 174.781 88.1973 175.141 87.3965 175.141C86.8066 175.141 86.3438 174.98 86.0078 174.66C85.6758 174.34 85.5098 173.916 85.5098 173.389C85.5098 172.256 86.1621 171.596 87.4668 171.408L89.248 171.156C89.248 170.301 88.8418 169.873 88.0293 169.873C87.3145 169.873 86.6699 170.119 86.0957 170.611V169.422C86.7285 169.047 87.459 168.859 88.2871 168.859C89.8027 168.859 90.5605 169.605 90.5605 171.098V175ZM89.248 172.053L87.9883 172.229C87.5977 172.279 87.3027 172.375 87.1035 172.516C86.9082 172.652 86.8105 172.895 86.8105 173.242C86.8105 173.496 86.9004 173.705 87.0801 173.869C87.2637 174.029 87.5078 174.109 87.8125 174.109C88.2266 174.109 88.5684 173.965 88.8379 173.676C89.1113 173.383 89.248 173.016 89.248 172.574V172.053ZM89.9219 165.941L88.2461 167.863H87.2383L88.6562 165.941H89.9219ZM93.5898 175H92.2246V166.117H93.5898V175ZM96.0508 167.74C95.8281 167.74 95.6367 167.668 95.4766 167.523C95.3203 167.379 95.2422 167.195 95.2422 166.973C95.2422 166.75 95.3203 166.564 95.4766 166.416C95.6367 166.268 95.8281 166.193 96.0508 166.193C96.2812 166.193 96.4766 166.268 96.6367 166.416C96.7969 166.564 96.877 166.75 96.877 166.973C96.877 167.184 96.7969 167.365 96.6367 167.518C96.4766 167.666 96.2812 167.74 96.0508 167.74ZM96.7246 175H95.3652V169H96.7246V175ZM98.1309 174.812V173.553C98.6387 173.939 99.1992 174.133 99.8125 174.133C100.633 174.133 101.043 173.891 101.043 173.406C101.043 173.27 101.008 173.154 100.938 173.061C100.867 172.963 100.771 172.877 100.65 172.803C100.533 172.729 100.393 172.662 100.229 172.604C100.068 172.545 99.8887 172.479 99.6895 172.404C99.4434 172.307 99.2207 172.203 99.0215 172.094C98.8262 171.984 98.6621 171.861 98.5293 171.725C98.4004 171.584 98.3027 171.426 98.2363 171.25C98.1699 171.074 98.1367 170.869 98.1367 170.635C98.1367 170.346 98.2051 170.092 98.3418 169.873C98.4785 169.65 98.6621 169.465 98.8926 169.316C99.123 169.164 99.3848 169.051 99.6777 168.977C99.9707 168.898 100.273 168.859 100.586 168.859C101.141 168.859 101.637 168.943 102.074 169.111V170.301C101.652 170.012 101.168 169.867 100.621 169.867C100.449 169.867 100.293 169.885 100.152 169.92C100.016 169.955 99.8984 170.004 99.8008 170.066C99.7031 170.129 99.627 170.205 99.5723 170.295C99.5176 170.381 99.4902 170.477 99.4902 170.582C99.4902 170.711 99.5176 170.82 99.5723 170.91C99.627 171 99.707 171.08 99.8125 171.15C99.9219 171.217 100.051 171.279 100.199 171.338C100.352 171.393 100.525 171.453 100.721 171.52C100.979 171.625 101.209 171.732 101.412 171.842C101.619 171.951 101.795 172.076 101.939 172.217C102.084 172.354 102.195 172.514 102.273 172.697C102.352 172.877 102.391 173.092 102.391 173.342C102.391 173.646 102.32 173.912 102.18 174.139C102.039 174.365 101.852 174.553 101.617 174.701C101.383 174.85 101.111 174.959 100.803 175.029C100.498 175.104 100.176 175.141 99.8359 175.141C99.1797 175.141 98.6113 175.031 98.1309 174.812ZM108.766 172.369H104.676C104.691 172.924 104.861 173.352 105.186 173.652C105.514 173.953 105.963 174.104 106.533 174.104C107.174 174.104 107.762 173.912 108.297 173.529V174.625C107.75 174.969 107.027 175.141 106.129 175.141C105.246 175.141 104.553 174.869 104.049 174.326C103.549 173.779 103.299 173.012 103.299 172.023C103.299 171.09 103.574 170.33 104.125 169.744C104.68 169.154 105.367 168.859 106.188 168.859C107.008 168.859 107.643 169.123 108.092 169.65C108.541 170.178 108.766 170.91 108.766 171.848V172.369ZM107.453 171.408C107.449 170.92 107.334 170.541 107.107 170.271C106.881 169.998 106.568 169.861 106.17 169.861C105.779 169.861 105.447 170.004 105.174 170.289C104.904 170.574 104.738 170.947 104.676 171.408H107.453ZM120.074 174.426C119.199 174.902 118.225 175.141 117.15 175.141C115.908 175.141 114.902 174.754 114.133 173.98C113.363 173.207 112.979 172.184 112.979 170.91C112.979 169.609 113.398 168.543 114.238 167.711C115.082 166.875 116.152 166.457 117.449 166.457C118.383 166.457 119.168 166.594 119.805 166.867V168.303C119.16 167.873 118.393 167.658 117.502 167.658C116.607 167.658 115.873 167.953 115.299 168.543C114.729 169.133 114.443 169.896 114.443 170.834C114.443 171.799 114.689 172.559 115.182 173.113C115.674 173.664 116.342 173.939 117.186 173.939C117.764 173.939 118.264 173.828 118.686 173.605V171.607H116.916V170.436H120.074V174.426ZM126.812 172.369H122.723C122.738 172.924 122.908 173.352 123.232 173.652C123.561 173.953 124.01 174.104 124.58 174.104C125.221 174.104 125.809 173.912 126.344 173.529V174.625C125.797 174.969 125.074 175.141 124.176 175.141C123.293 175.141 122.6 174.869 122.096 174.326C121.596 173.779 121.346 173.012 121.346 172.023C121.346 171.09 121.621 170.33 122.172 169.744C122.727 169.154 123.414 168.859 124.234 168.859C125.055 168.859 125.689 169.123 126.139 169.65C126.588 170.178 126.812 170.91 126.812 171.848V172.369ZM125.5 171.408C125.496 170.92 125.381 170.541 125.154 170.271C124.928 169.998 124.615 169.861 124.217 169.861C123.826 169.861 123.494 170.004 123.221 170.289C122.951 170.574 122.785 170.947 122.723 171.408H125.5ZM131.588 170.295C131.424 170.166 131.188 170.102 130.879 170.102C130.477 170.102 130.141 170.283 129.871 170.646C129.602 171.01 129.467 171.504 129.467 172.129V175H128.107V169H129.467V170.236H129.49C129.623 169.814 129.826 169.486 130.1 169.252C130.377 169.014 130.686 168.895 131.025 168.895C131.271 168.895 131.459 168.932 131.588 169.006V170.295ZM137.154 175H135.836V174.062H135.812C135.398 174.781 134.791 175.141 133.99 175.141C133.4 175.141 132.938 174.98 132.602 174.66C132.27 174.34 132.104 173.916 132.104 173.389C132.104 172.256 132.756 171.596 134.061 171.408L135.842 171.156C135.842 170.301 135.436 169.873 134.623 169.873C133.908 169.873 133.264 170.119 132.689 170.611V169.422C133.322 169.047 134.053 168.859 134.881 168.859C136.396 168.859 137.154 169.605 137.154 171.098V175ZM135.842 172.053L134.582 172.229C134.191 172.279 133.896 172.375 133.697 172.516C133.502 172.652 133.404 172.895 133.404 173.242C133.404 173.496 133.494 173.705 133.674 173.869C133.857 174.029 134.102 174.109 134.406 174.109C134.82 174.109 135.162 173.965 135.432 173.676C135.705 173.383 135.842 173.016 135.842 172.574V172.053ZM140.184 175H138.818V166.117H140.184V175Z" fill="white"/>
<rect x="40" y="196" width="160" height="36" rx="5" fill="#AF90EB"/>
<path d="M69.9999 215.333H69.3333V208C69.3333 207.823 69.263 207.654 69.138 207.529C69.013 207.404 68.8434 207.333 68.6666 207.333H59.3333C59.1564 207.333 58.9869 207.404 58.8618 207.529C58.7368 207.654 58.6666 207.823 58.6666 208V215.333H57.9999C57.8231 215.333 57.6535 215.404 57.5285 215.529C57.4035 215.654 57.3333 215.823 57.3333 216C57.3333 216.177 57.4035 216.346 57.5285 216.471C57.6535 216.596 57.8231 216.667 57.9999 216.667H63.3333V217.433L60.2999 219.433C60.1755 219.51 60.0798 219.626 60.0278 219.763C59.9757 219.9 59.9701 220.05 60.0118 220.19C60.0535 220.33 60.1402 220.453 60.2585 220.539C60.3769 220.625 60.5203 220.67 60.6666 220.667C60.7977 220.668 60.9259 220.629 61.0333 220.553L63.3333 219.033V220C63.3333 220.177 63.4035 220.346 63.5285 220.471C63.6535 220.596 63.8231 220.667 63.9999 220.667C64.1767 220.667 64.3463 220.596 64.4713 220.471C64.5963 220.346 64.6666 220.177 64.6666 220V219.033L66.9666 220.553C67.0739 220.629 67.2022 220.668 67.3333 220.667C67.4757 220.666 67.614 220.619 67.728 220.533C67.842 220.448 67.9256 220.328 67.9666 220.192C68.0076 220.055 68.0038 219.91 67.9558 219.775C67.9078 219.641 67.8181 219.526 67.6999 219.447L64.6666 217.447V216.667H69.9999C70.1767 216.667 70.3463 216.596 70.4713 216.471C70.5963 216.346 70.6666 216.177 70.6666 216C70.6666 215.823 70.5963 215.654 70.4713 215.529C70.3463 215.404 70.1767 215.333 69.9999 215.333ZM67.9999 215.333H59.9999V208.667H67.9999V215.333ZM61.9999 214C62.1097 213.999 62.2177 213.972 62.3142 213.919C62.4108 213.867 62.4929 213.792 62.5533 213.7L63.4399 212.367L64.1933 213.127C64.2632 213.197 64.348 213.251 64.4414 213.284C64.5348 213.318 64.6345 213.33 64.7333 213.32C64.8315 213.309 64.9262 213.277 65.0104 213.225C65.0945 213.173 65.1661 213.103 65.2199 213.02L66.5533 211.02C66.6318 210.874 66.6528 210.703 66.6123 210.542C66.5717 210.381 66.4725 210.241 66.334 210.149C66.1956 210.057 66.0278 210.021 65.8637 210.046C65.6995 210.071 65.5508 210.157 65.4466 210.287L64.5599 211.62L63.8066 210.86C63.7366 210.79 63.6519 210.736 63.5584 210.702C63.465 210.669 63.3653 210.657 63.2666 210.667C63.1683 210.677 63.0736 210.71 62.9895 210.762C62.9053 210.814 62.8337 210.884 62.7799 210.967L61.4466 212.967C61.3501 213.114 61.3156 213.293 61.3505 213.465C61.3855 213.637 61.4871 213.789 61.6333 213.887C61.7406 213.962 61.8689 214.001 61.9999 214V214Z" fill="white"/>
<path d="M81.0371 219V210.598H83.4629C86.5605 210.598 88.1094 211.963 88.1094 214.693C88.1094 215.99 87.6797 217.033 86.8203 217.822C85.9609 218.607 84.8086 219 83.3633 219H81.0371ZM82.4258 211.781V217.822H83.5391C84.5195 217.822 85.2812 217.553 85.8242 217.014C86.3711 216.475 86.6445 215.713 86.6445 214.729C86.6445 212.764 85.627 211.781 83.5918 211.781H82.4258ZM94.5781 216.369H90.4883C90.5039 216.924 90.6738 217.352 90.998 217.652C91.3262 217.953 91.7754 218.104 92.3457 218.104C92.9863 218.104 93.5742 217.912 94.1094 217.529V218.625C93.5625 218.969 92.8398 219.141 91.9414 219.141C91.0586 219.141 90.3652 218.869 89.8613 218.326C89.3613 217.779 89.1113 217.012 89.1113 216.023C89.1113 215.09 89.3867 214.33 89.9375 213.744C90.4922 213.154 91.1797 212.859 92 212.859C92.8203 212.859 93.4551 213.123 93.9043 213.65C94.3535 214.178 94.5781 214.91 94.5781 215.848V216.369ZM93.2656 215.408C93.2617 214.92 93.1465 214.541 92.9199 214.271C92.6934 213.998 92.3809 213.861 91.9824 213.861C91.5918 213.861 91.2598 214.004 90.9863 214.289C90.7168 214.574 90.5508 214.947 90.4883 215.408H93.2656ZM99.0371 218.936C98.7715 219.068 98.4219 219.135 97.9883 219.135C96.8242 219.135 96.2422 218.576 96.2422 217.459V214.066H95.2402V213H96.2422V211.611L97.6016 211.225V213H99.0371V214.066H97.6016V217.066C97.6016 217.422 97.666 217.676 97.7949 217.828C97.9238 217.98 98.1387 218.057 98.4395 218.057C98.6699 218.057 98.8691 217.99 99.0371 217.857V218.936ZM104.814 219H103.496V218.062H103.473C103.059 218.781 102.451 219.141 101.65 219.141C101.061 219.141 100.598 218.98 100.262 218.66C99.9297 218.34 99.7637 217.916 99.7637 217.389C99.7637 216.256 100.416 215.596 101.721 215.408L103.502 215.156C103.502 214.301 103.096 213.873 102.283 213.873C101.568 213.873 100.924 214.119 100.35 214.611V213.422C100.982 213.047 101.713 212.859 102.541 212.859C104.057 212.859 104.814 213.605 104.814 215.098V219ZM103.502 216.053L102.242 216.229C101.852 216.279 101.557 216.375 101.357 216.516C101.162 216.652 101.064 216.895 101.064 217.242C101.064 217.496 101.154 217.705 101.334 217.869C101.518 218.029 101.762 218.109 102.066 218.109C102.48 218.109 102.822 217.965 103.092 217.676C103.365 217.383 103.502 217.016 103.502 216.574V216.053ZM107.844 219H106.479V210.117H107.844V219ZM114.951 219H113.592V215.719C113.592 214.531 113.195 213.938 112.402 213.938C112.004 213.938 111.668 214.109 111.395 214.453C111.121 214.797 110.984 215.236 110.984 215.771V219H109.619V210.117H110.984V213.996H111.008C111.461 213.238 112.109 212.859 112.953 212.859C114.285 212.859 114.951 213.674 114.951 215.303V219ZM121.209 219H119.891V218.062H119.867C119.453 218.781 118.846 219.141 118.045 219.141C117.455 219.141 116.992 218.98 116.656 218.66C116.324 218.34 116.158 217.916 116.158 217.389C116.158 216.256 116.811 215.596 118.115 215.408L119.896 215.156C119.896 214.301 119.49 213.873 118.678 213.873C117.963 213.873 117.318 214.119 116.744 214.611V213.422C117.377 213.047 118.107 212.859 118.936 212.859C120.451 212.859 121.209 213.605 121.209 215.098V219ZM119.896 216.053L118.637 216.229C118.246 216.279 117.951 216.375 117.752 216.516C117.557 216.652 117.459 216.895 117.459 217.242C117.459 217.496 117.549 217.705 117.729 217.869C117.912 218.029 118.156 218.109 118.461 218.109C118.875 218.109 119.217 217.965 119.486 217.676C119.76 217.383 119.896 217.016 119.896 216.574V216.053ZM131.844 219H130.484V215.73C130.484 215.102 130.395 214.646 130.215 214.365C130.039 214.084 129.74 213.943 129.318 213.943C128.963 213.943 128.66 214.121 128.41 214.477C128.164 214.832 128.041 215.258 128.041 215.754V219H126.676V215.619C126.676 214.502 126.281 213.943 125.492 213.943C125.125 213.943 124.822 214.111 124.584 214.447C124.35 214.783 124.232 215.219 124.232 215.754V219H122.873V213H124.232V213.949H124.256C124.689 213.223 125.32 212.859 126.148 212.859C126.562 212.859 126.924 212.975 127.232 213.205C127.545 213.432 127.758 213.73 127.871 214.102C128.316 213.273 128.98 212.859 129.863 212.859C131.184 212.859 131.844 213.674 131.844 215.303V219ZM138.582 216.369H134.492C134.508 216.924 134.678 217.352 135.002 217.652C135.33 217.953 135.779 218.104 136.35 218.104C136.99 218.104 137.578 217.912 138.113 217.529V218.625C137.566 218.969 136.844 219.141 135.945 219.141C135.062 219.141 134.369 218.869 133.865 218.326C133.365 217.779 133.115 217.012 133.115 216.023C133.115 215.09 133.391 214.33 133.941 213.744C134.496 213.154 135.184 212.859 136.004 212.859C136.824 212.859 137.459 213.123 137.908 213.65C138.357 214.178 138.582 214.91 138.582 215.848V216.369ZM137.27 215.408C137.266 214.92 137.15 214.541 136.924 214.271C136.697 213.998 136.385 213.861 135.986 213.861C135.596 213.861 135.264 214.004 134.99 214.289C134.721 214.574 134.555 214.947 134.492 215.408H137.27ZM145.221 219H143.861V215.619C143.861 214.498 143.465 213.938 142.672 213.938C142.258 213.938 141.916 214.094 141.646 214.406C141.377 214.715 141.242 215.105 141.242 215.578V219H139.877V213H141.242V213.996H141.266C141.715 213.238 142.363 212.859 143.211 212.859C143.863 212.859 144.361 213.072 144.705 213.498C145.049 213.92 145.221 214.531 145.221 215.332V219ZM150.049 218.936C149.783 219.068 149.434 219.135 149 219.135C147.836 219.135 147.254 218.576 147.254 217.459V214.066H146.252V213H147.254V211.611L148.613 211.225V213H150.049V214.066H148.613V217.066C148.613 217.422 148.678 217.676 148.807 217.828C148.936 217.98 149.15 218.057 149.451 218.057C149.682 218.057 149.881 217.99 150.049 217.857V218.936ZM153.811 219.141C152.885 219.141 152.145 218.861 151.59 218.303C151.039 217.74 150.764 216.996 150.764 216.07C150.764 215.062 151.051 214.275 151.625 213.709C152.203 213.143 152.98 212.859 153.957 212.859C154.895 212.859 155.625 213.135 156.148 213.686C156.672 214.236 156.934 215 156.934 215.977C156.934 216.934 156.65 217.701 156.084 218.279C155.521 218.854 154.764 219.141 153.811 219.141ZM153.875 213.943C153.344 213.943 152.924 214.129 152.615 214.5C152.307 214.871 152.152 215.383 152.152 216.035C152.152 216.664 152.309 217.16 152.621 217.523C152.934 217.883 153.352 218.062 153.875 218.062C154.41 218.062 154.82 217.885 155.105 217.529C155.395 217.174 155.539 216.668 155.539 216.012C155.539 215.352 155.395 214.842 155.105 214.482C154.82 214.123 154.41 213.943 153.875 213.943Z" fill="white"/>
<path d="M60.3281 97V85.7969H64.2969C68.276 85.7969 70.2656 87.6172 70.2656 91.2578C70.2656 93.0026 69.7214 94.3958 68.6328 95.4375C67.5495 96.4792 66.1042 97 64.2969 97H60.3281ZM62.8516 87.8516V94.9531H64.1016C65.1953 94.9531 66.0521 94.625 66.6719 93.9688C67.2969 93.3125 67.6094 92.4193 67.6094 91.2891C67.6094 90.2214 67.2995 89.3828 66.6797 88.7734C66.0651 88.1589 65.2005 87.8516 64.0859 87.8516H62.8516ZM81.7266 97H78.9766L78.1797 94.5078H74.1953L73.4062 97H70.6719L74.75 85.7969H77.7422L81.7266 97ZM77.6016 92.5703L76.3984 88.8047C76.3099 88.5234 76.2474 88.1875 76.2109 87.7969H76.1484C76.1224 88.125 76.0573 88.4505 75.9531 88.7734L74.7344 92.5703H77.6016ZM82.6094 96.5703V94.0703C83.0625 94.4505 83.5547 94.737 84.0859 94.9297C84.6172 95.1172 85.1536 95.2109 85.6953 95.2109C86.013 95.2109 86.2891 95.1823 86.5234 95.125C86.763 95.0677 86.9609 94.9896 87.1172 94.8906C87.2786 94.7865 87.3984 94.6667 87.4766 94.5312C87.5547 94.3906 87.5938 94.2396 87.5938 94.0781C87.5938 93.8594 87.5312 93.6641 87.4062 93.4922C87.2812 93.3203 87.1094 93.1615 86.8906 93.0156C86.6771 92.8698 86.4219 92.7292 86.125 92.5938C85.8281 92.4583 85.5078 92.3203 85.1641 92.1797C84.2891 91.8151 83.6354 91.3698 83.2031 90.8438C82.776 90.3177 82.5625 89.6823 82.5625 88.9375C82.5625 88.3542 82.6797 87.8542 82.9141 87.4375C83.1484 87.0156 83.4661 86.6693 83.8672 86.3984C84.2734 86.1276 84.7422 85.9297 85.2734 85.8047C85.8047 85.6745 86.3672 85.6094 86.9609 85.6094C87.5443 85.6094 88.0599 85.6458 88.5078 85.7188C88.9609 85.7865 89.3776 85.8932 89.7578 86.0391V88.375C89.5703 88.2448 89.3646 88.1302 89.1406 88.0312C88.9219 87.9323 88.6953 87.8516 88.4609 87.7891C88.2266 87.7214 87.9922 87.6719 87.7578 87.6406C87.5286 87.6094 87.3099 87.5938 87.1016 87.5938C86.8151 87.5938 86.5547 87.6224 86.3203 87.6797C86.0859 87.7318 85.888 87.8073 85.7266 87.9062C85.5651 88.0052 85.4401 88.125 85.3516 88.2656C85.263 88.401 85.2188 88.5547 85.2188 88.7266C85.2188 88.9141 85.2682 89.0833 85.3672 89.2344C85.4661 89.3802 85.6068 89.5208 85.7891 89.6562C85.9714 89.7865 86.1927 89.9167 86.4531 90.0469C86.7135 90.1719 87.0078 90.3021 87.3359 90.4375C87.7839 90.625 88.1849 90.8255 88.5391 91.0391C88.8984 91.2474 89.2057 91.4844 89.4609 91.75C89.7161 92.0156 89.9115 92.3203 90.0469 92.6641C90.1823 93.0026 90.25 93.3984 90.25 93.8516C90.25 94.4766 90.1302 95.0026 89.8906 95.4297C89.6562 95.8516 89.3359 96.1953 88.9297 96.4609C88.5234 96.7214 88.0495 96.9089 87.5078 97.0234C86.9714 97.138 86.4036 97.1953 85.8047 97.1953C85.1901 97.1953 84.6042 97.1432 84.0469 97.0391C83.4948 96.9349 83.0156 96.7786 82.6094 96.5703ZM101.789 97H99.2578V92.4375H94.6172V97H92.0938V85.7969H94.6172V90.2656H99.2578V85.7969H101.789V97ZM104.359 97V85.7969H108.438C109.688 85.7969 110.648 86.026 111.32 86.4844C111.992 86.9427 112.328 87.5885 112.328 88.4219C112.328 89.026 112.122 89.5547 111.711 90.0078C111.305 90.4609 110.784 90.776 110.148 90.9531V90.9844C110.945 91.0833 111.581 91.3776 112.055 91.8672C112.534 92.3568 112.773 92.9531 112.773 93.6562C112.773 94.6823 112.406 95.4974 111.672 96.1016C110.938 96.7005 109.935 97 108.664 97H104.359ZM106.883 87.6562V90.3125H107.992C108.513 90.3125 108.922 90.1875 109.219 89.9375C109.521 89.6823 109.672 89.3333 109.672 88.8906C109.672 88.0677 109.057 87.6562 107.828 87.6562H106.883ZM106.883 92.1875V95.1406H108.25C108.833 95.1406 109.289 95.0052 109.617 94.7344C109.951 94.4635 110.117 94.0938 110.117 93.625C110.117 93.1771 109.953 92.8255 109.625 92.5703C109.302 92.3151 108.849 92.1875 108.266 92.1875H106.883ZM119.359 97.1953C117.755 97.1953 116.448 96.6745 115.438 95.6328C114.427 94.5859 113.922 93.224 113.922 91.5469C113.922 89.776 114.435 88.3438 115.461 87.25C116.487 86.1562 117.846 85.6094 119.539 85.6094C121.138 85.6094 122.43 86.1328 123.414 87.1797C124.404 88.2266 124.898 89.6068 124.898 91.3203C124.898 93.0807 124.385 94.5 123.359 95.5781C122.339 96.6562 121.005 97.1953 119.359 97.1953ZM119.469 87.7812C118.583 87.7812 117.88 88.1146 117.359 88.7812C116.839 89.4427 116.578 90.3203 116.578 91.4141C116.578 92.5234 116.839 93.401 117.359 94.0469C117.88 94.6927 118.562 95.0156 119.406 95.0156C120.276 95.0156 120.966 94.7031 121.477 94.0781C121.987 93.4479 122.242 92.5755 122.242 91.4609C122.242 90.2995 121.995 89.3958 121.5 88.75C121.005 88.1042 120.328 87.7812 119.469 87.7812ZM136.367 97H133.617L132.82 94.5078H128.836L128.047 97H125.312L129.391 85.7969H132.383L136.367 97ZM132.242 92.5703L131.039 88.8047C130.951 88.5234 130.888 88.1875 130.852 87.7969H130.789C130.763 88.125 130.698 88.4505 130.594 88.7734L129.375 92.5703H132.242ZM147.164 97H144.266L142.523 94.1172C142.393 93.8984 142.268 93.7031 142.148 93.5312C142.029 93.3594 141.906 93.2135 141.781 93.0938C141.661 92.9688 141.534 92.875 141.398 92.8125C141.268 92.7448 141.125 92.7109 140.969 92.7109H140.289V97H137.766V85.7969H141.766C144.484 85.7969 145.844 86.8125 145.844 88.8438C145.844 89.2344 145.784 89.5964 145.664 89.9297C145.544 90.2578 145.375 90.5547 145.156 90.8203C144.938 91.0859 144.672 91.3151 144.359 91.5078C144.052 91.7005 143.708 91.8516 143.328 91.9609V91.9922C143.495 92.0443 143.656 92.1302 143.812 92.25C143.969 92.3646 144.12 92.5 144.266 92.6562C144.411 92.8125 144.549 92.9818 144.68 93.1641C144.815 93.3411 144.938 93.5156 145.047 93.6875L147.164 97ZM140.289 87.6875V90.8047H141.383C141.924 90.8047 142.359 90.6484 142.688 90.3359C143.021 90.0182 143.188 89.625 143.188 89.1562C143.188 88.1771 142.602 87.6875 141.43 87.6875H140.289ZM148.219 97V85.7969H152.188C156.167 85.7969 158.156 87.6172 158.156 91.2578C158.156 93.0026 157.612 94.3958 156.523 95.4375C155.44 96.4792 153.995 97 152.188 97H148.219ZM150.742 87.8516V94.9531H151.992C153.086 94.9531 153.943 94.625 154.562 93.9688C155.188 93.3125 155.5 92.4193 155.5 91.2891C155.5 90.2214 155.19 89.3828 154.57 88.7734C153.956 88.1589 153.091 87.8516 151.977 87.8516H150.742ZM66.8047 108.852H62.8516V111.602H66.4844V113.648H62.8516V118H60.3281V106.797H66.8047V108.852ZM71.1797 118H68.6562V106.797H71.1797V118ZM83.8125 118H81.2656L76.6484 110.961C76.3776 110.549 76.1901 110.24 76.0859 110.031H76.0547C76.0964 110.427 76.1172 111.031 76.1172 111.844V118H73.7344V106.797H76.4531L80.8984 113.617C81.1016 113.924 81.2891 114.229 81.4609 114.531H81.4922C81.4505 114.271 81.4297 113.758 81.4297 112.992V106.797H83.8125V118ZM96.2266 118H93.4766L92.6797 115.508H88.6953L87.9062 118H85.1719L89.25 106.797H92.2422L96.2266 118ZM92.1016 113.57L90.8984 109.805C90.8099 109.523 90.7474 109.188 90.7109 108.797H90.6484C90.6224 109.125 90.5573 109.451 90.4531 109.773L89.2344 113.57H92.1016ZM107.703 118H105.156L100.539 110.961C100.268 110.549 100.081 110.24 99.9766 110.031H99.9453C99.987 110.427 100.008 111.031 100.008 111.844V118H97.625V106.797H100.344L104.789 113.617C104.992 113.924 105.18 114.229 105.352 114.531H105.383C105.341 114.271 105.32 113.758 105.32 112.992V106.797H107.703V118ZM118.297 117.602C117.479 117.997 116.411 118.195 115.094 118.195C113.375 118.195 112.023 117.69 111.039 116.68C110.055 115.669 109.562 114.323 109.562 112.641C109.562 110.849 110.115 109.396 111.219 108.281C112.328 107.167 113.766 106.609 115.531 106.609C116.625 106.609 117.547 106.747 118.297 107.023V109.453C117.547 109.005 116.693 108.781 115.734 108.781C114.682 108.781 113.833 109.112 113.188 109.773C112.542 110.435 112.219 111.331 112.219 112.461C112.219 113.544 112.523 114.409 113.133 115.055C113.742 115.695 114.562 116.016 115.594 116.016C116.578 116.016 117.479 115.776 118.297 115.297V117.602ZM126.969 118H120.25V106.797H126.711V108.852H122.773V111.344H126.438V113.391H122.773V115.953H126.969V118ZM131.289 118H128.766V106.797H131.289V118ZM143.242 118H140.344L138.602 115.117C138.471 114.898 138.346 114.703 138.227 114.531C138.107 114.359 137.984 114.214 137.859 114.094C137.74 113.969 137.612 113.875 137.477 113.812C137.346 113.745 137.203 113.711 137.047 113.711H136.367V118H133.844V106.797H137.844C140.562 106.797 141.922 107.812 141.922 109.844C141.922 110.234 141.862 110.596 141.742 110.93C141.622 111.258 141.453 111.555 141.234 111.82C141.016 112.086 140.75 112.315 140.438 112.508C140.13 112.701 139.786 112.852 139.406 112.961V112.992C139.573 113.044 139.734 113.13 139.891 113.25C140.047 113.365 140.198 113.5 140.344 113.656C140.49 113.812 140.628 113.982 140.758 114.164C140.893 114.341 141.016 114.516 141.125 114.688L143.242 118ZM136.367 108.688V111.805H137.461C138.003 111.805 138.438 111.648 138.766 111.336C139.099 111.018 139.266 110.625 139.266 110.156C139.266 109.177 138.68 108.688 137.508 108.688H136.367ZM148.875 118.195C147.271 118.195 145.964 117.674 144.953 116.633C143.943 115.586 143.438 114.224 143.438 112.547C143.438 110.776 143.951 109.344 144.977 108.25C146.003 107.156 147.362 106.609 149.055 106.609C150.654 106.609 151.945 107.133 152.93 108.18C153.919 109.227 154.414 110.607 154.414 112.32C154.414 114.081 153.901 115.5 152.875 116.578C151.854 117.656 150.521 118.195 148.875 118.195ZM148.984 108.781C148.099 108.781 147.396 109.115 146.875 109.781C146.354 110.443 146.094 111.32 146.094 112.414C146.094 113.523 146.354 114.401 146.875 115.047C147.396 115.693 148.078 116.016 148.922 116.016C149.792 116.016 150.482 115.703 150.992 115.078C151.503 114.448 151.758 113.576 151.758 112.461C151.758 111.299 151.51 110.396 151.016 109.75C150.521 109.104 149.844 108.781 148.984 108.781Z" fill="white"/>
<rect x="210" y="40" width="1090" height="700" rx="15" fill="#F4F7FC"/>
<g filter="url(#filter1_d_2666_1589)">
<rect x="230" y="111" width="247.5" height="94" rx="10" fill="white"/>
</g>
<g filter="url(#filter2_d_2666_1589)">
<rect x="497.5" y="111" width="247.5" height="94" rx="10" fill="white"/>
</g>
<g filter="url(#filter3_d_2666_1589)">
<rect x="765" y="111" width="247.5" height="94" rx="10" fill="white"/>
</g>
<g filter="url(#filter4_d_2666_1589)">
<rect x="1032.5" y="111" width="247.5" height="94" rx="10" fill="white"/>
</g>
<g filter="url(#filter5_d_2666_1589)">
<rect x="225" y="225" width="1055" height="237.5" rx="10" fill="white" shape-rendering="crispEdges"/>
</g>
<g filter="url(#filter6_d_2666_1589)">
<rect x="225" y="482.5" width="1055" height="237.5" rx="10" fill="white" shape-rendering="crispEdges"/>
</g>
<rect x="1050" y="145" width="24" height="24" rx="5" fill="#EBAC5B"/>
<path d="M1071.71 152.29C1071.62 152.196 1071.51 152.122 1071.38 152.071C1071.26 152.02 1071.13 151.994 1071 151.994C1070.87 151.994 1070.74 152.02 1070.62 152.071C1070.49 152.122 1070.38 152.196 1070.29 152.29L1064 158.59L1059.71 154.29C1059.62 154.196 1059.51 154.122 1059.38 154.071C1059.26 154.02 1059.13 153.994 1059 153.994C1058.87 153.994 1058.74 154.02 1058.62 154.071C1058.49 154.122 1058.38 154.196 1058.29 154.29L1052.29 160.29C1052.2 160.383 1052.12 160.494 1052.07 160.615C1052.02 160.737 1051.99 160.868 1051.99 161C1051.99 161.132 1052.02 161.263 1052.07 161.385C1052.12 161.506 1052.2 161.617 1052.29 161.71C1052.38 161.804 1052.49 161.878 1052.62 161.929C1052.74 161.98 1052.87 162.006 1053 162.006C1053.13 162.006 1053.26 161.98 1053.38 161.929C1053.51 161.878 1053.62 161.804 1053.71 161.71L1059 156.41L1063.29 160.71C1063.38 160.804 1063.49 160.878 1063.62 160.929C1063.74 160.98 1063.87 161.006 1064 161.006C1064.13 161.006 1064.26 160.98 1064.38 160.929C1064.51 160.878 1064.62 160.804 1064.71 160.71L1071.71 153.71C1071.8 153.617 1071.88 153.506 1071.93 153.385C1071.98 153.263 1072.01 153.132 1072.01 153C1072.01 152.868 1071.98 152.737 1071.93 152.615C1071.88 152.494 1071.8 152.383 1071.71 152.29V152.29Z" fill="white"/>
<rect x="777" y="145" width="24" height="24" rx="5" fill="#C9CED9"/>
<path d="M789 147C787.468 146.997 785.956 147.347 784.58 148.021C783.204 148.695 782.002 149.677 781.066 150.89C780.13 152.103 779.485 153.514 779.181 155.016C778.877 156.518 778.922 158.069 779.313 159.551C779.703 161.032 780.429 162.404 781.434 163.56C782.44 164.717 783.697 165.626 785.11 166.22C786.522 166.813 788.052 167.074 789.581 166.982C791.111 166.89 792.599 166.448 793.93 165.69H794H794.05C795.975 164.594 797.482 162.89 798.334 160.845C799.186 158.8 799.335 156.53 798.757 154.391C798.179 152.252 796.907 150.366 795.141 149.028C793.375 147.691 791.215 146.977 789 147V147ZM790 149.07C791.76 149.293 793.396 150.095 794.65 151.35C795.905 152.604 796.707 154.24 796.93 156H790V149.07ZM789 165C786.975 164.986 785.03 164.205 783.558 162.813C782.086 161.421 781.197 159.523 781.07 157.501C780.943 155.48 781.588 153.485 782.874 151.921C784.16 150.356 785.992 149.337 788 149.07V157C788.004 157.12 788.028 157.238 788.07 157.35V157.43V157.5L792.07 164.37C791.1 164.785 790.055 165 789 165V165ZM793.83 163.36L790.73 158H796.93C796.795 159.055 796.452 160.072 795.92 160.992C795.387 161.912 794.677 162.717 793.83 163.36Z" fill="white"/>
<rect x="247" y="145" width="24" height="24" rx="5" fill="#172774"/>
<path d="M261 156H260V152H262C262.265 152 262.52 152.105 262.707 152.293C262.895 152.48 263 152.735 263 153C263 153.265 263.105 153.52 263.293 153.707C263.48 153.895 263.735 154 264 154C264.265 154 264.52 153.895 264.707 153.707C264.895 153.52 265 153.265 265 153C265 152.204 264.684 151.441 264.121 150.879C263.559 150.316 262.796 150 262 150H260V148C260 147.735 259.895 147.48 259.707 147.293C259.52 147.105 259.265 147 259 147C258.735 147 258.48 147.105 258.293 147.293C258.105 147.48 258 147.735 258 148V150H257C255.939 150 254.922 150.421 254.172 151.172C253.421 151.922 253 152.939 253 154C253 155.061 253.421 156.078 254.172 156.828C254.922 157.579 255.939 158 257 158H258V162H256C255.735 162 255.48 161.895 255.293 161.707C255.105 161.52 255 161.265 255 161C255 160.735 254.895 160.48 254.707 160.293C254.52 160.105 254.265 160 254 160C253.735 160 253.48 160.105 253.293 160.293C253.105 160.48 253 160.735 253 161C253 161.796 253.316 162.559 253.879 163.121C254.441 163.684 255.204 164 256 164H258V166C258 166.265 258.105 166.52 258.293 166.707C258.48 166.895 258.735 167 259 167C259.265 167 259.52 166.895 259.707 166.707C259.895 166.52 260 166.265 260 166V164H261C262.061 164 263.078 163.579 263.828 162.828C264.579 162.078 265 161.061 265 160C265 158.939 264.579 157.922 263.828 157.172C263.078 156.421 262.061 156 261 156V156ZM258 156H257C256.47 156 255.961 155.789 255.586 155.414C255.211 155.039 255 154.53 255 154C255 153.47 255.211 152.961 255.586 152.586C255.961 152.211 256.47 152 257 152H258V156ZM261 162H260V158H261C261.53 158 262.039 158.211 262.414 158.586C262.789 158.961 263 159.47 263 160C263 160.53 262.789 161.039 262.414 161.414C262.039 161.789 261.53 162 261 162Z" fill="white"/>
<rect x="512" y="145" width="24" height="24" rx="5" fill="#AF90EB"/>
<path d="M531 157H524V150C524 149.4 523.6 149 523 149C518 149 514 153 514 158C514 163 518 167 523 167C528 167 532 163 532 158C532 157.4 531.6 157 531 157ZM524 164.9C520.2 165.5 516.6 162.8 516.1 159C515.5 155.2 518.2 151.6 522 151.1V158C522 158.6 522.4 159 523 159H529.9C529.5 162.1 527.1 164.5 524 164.9ZM527 147C526.4 147 526 147.4 526 148V154C526 154.6 526.4 155 527 155H533C533.6 155 534 154.6 534 154C534 150.1 530.9 147 527 147ZM528 153V149.1C530 149.5 531.5 151 531.9 153H528Z" fill="white"/>
</g>
</g>
</g>
<defs>
<filter id="filter0_d_2666_1589" x="1" y="1" width="1348" height="788" filterUnits="userSpaceOnUse" color-interpolation-filters="sRGB">
<feFlood flood-opacity="0" result="BackgroundImageFix"/>
<feColorMatrix in="SourceAlpha" type="matrix" values="0 0 0 0 0 0 0 0 0 0 0 0 0 0 0 0 0 0 127 0" result="hardAlpha"/>
<feOffset dx="5" dy="5"/>
<feGaussianBlur stdDeviation="17"/>
<feComposite in2="hardAlpha" operator="out"/>
<feColorMatrix type="matrix" values="0 0 0 0 0 0 0 0 0 0 0 0 0 0 0 0 0 0 0.25 0"/>
<feBlend mode="normal" in2="BackgroundImageFix" result="effect1_dropShadow_2666_1589"/>
<feBlend mode="normal" in="SourceGraphic" in2="effect1_dropShadow_2666_1589" result="shape"/>
</filter>
<filter id="filter1_d_2666_1589" x="224" y="105" width="267.5" height="114" filterUnits="userSpaceOnUse" color-interpolation-filters="sRGB">
<feFlood flood-opacity="0" result="BackgroundImageFix"/>
<feColorMatrix in="SourceAlpha" type="matrix" values="0 0 0 0 0 0 0 0 0 0 0 0 0 0 0 0 0 0 127 0" result="hardAlpha"/>
<feOffset dx="4" dy="4"/>
<feGaussianBlur stdDeviation="5"/>
<feComposite in2="hardAlpha" operator="out"/>
<feColorMatrix type="matrix" values="0 0 0 0 0 0 0 0 0 0 0 0 0 0 0 0 0 0 0.06 0"/>
<feBlend mode="normal" in2="BackgroundImageFix" result="effect1_dropShadow_2666_1589"/>
<feBlend mode="normal" in="SourceGraphic" in2="effect1_dropShadow_2666_1589" result="shape"/>
</filter>
<filter id="filter2_d_2666_1589" x="491.5" y="105" width="267.5" height="114" filterUnits="userSpaceOnUse" color-interpolation-filters="sRGB">
<feFlood flood-opacity="0" result="BackgroundImageFix"/>
<feColorMatrix in="SourceAlpha" type="matrix" values="0 0 0 0 0 0 0 0 0 0 0 0 0 0 0 0 0 0 127 0" result="hardAlpha"/>
<feOffset dx="4" dy="4"/>
<feGaussianBlur stdDeviation="5"/>
<feComposite in2="hardAlpha" operator="out"/>
<feColorMatrix type="matrix" values="0 0 0 0 0 0 0 0 0 0 0 0 0 0 0 0 0 0 0.06 0"/>
<feBlend mode="normal" in2="BackgroundImageFix" result="effect1_dropShadow_2666_1589"/>
<feBlend mode="normal" in="SourceGraphic" in2="effect1_dropShadow_2666_1589" result="shape"/>
</filter>
<filter id="filter3_d_2666_1589" x="759" y="105" width="267.5" height="114" filterUnits="userSpaceOnUse" color-interpolation-filters="sRGB">
<feFlood flood-opacity="0" result="BackgroundImageFix"/>
<feColorMatrix in="SourceAlpha" type="matrix" values="0 0 0 0 0 0 0 0 0 0 0 0 0 0 0 0 0 0 127 0" result="hardAlpha"/>
<feOffset dx="4" dy="4"/>
<feGaussianBlur stdDeviation="5"/>
<feComposite in2="hardAlpha" operator="out"/>
<feColorMatrix type="matrix" values="0 0 0 0 0 0 0 0 0 0 0 0 0 0 0 0 0 0 0.06 0"/>
<feBlend mode="normal" in2="BackgroundImageFix" result="effect1_dropShadow_2666_1589"/>
<feBlend mode="normal" in="SourceGraphic" in2="effect1_dropShadow_2666_1589" result="shape"/>
</filter>
<filter id="filter4_d_2666_1589" x="1026.5" y="105" width="267.5" height="114" filterUnits="userSpaceOnUse" color-interpolation-filters="sRGB">
<feFlood flood-opacity="0" result="BackgroundImageFix"/>
<feColorMatrix in="SourceAlpha" type="matrix" values="0 0 0 0 0 0 0 0 0 0 0 0 0 0 0 0 0 0 127 0" result="hardAlpha"/>
<feOffset dx="4" dy="4"/>
<feGaussianBlur stdDeviation="5"/>
<feComposite in2="hardAlpha" operator="out"/>
<feColorMatrix type="matrix" values="0 0 0 0 0 0 0 0 0 0 0 0 0 0 0 0 0 0 0.06 0"/>
<feBlend mode="normal" in2="BackgroundImageFix" result="effect1_dropShadow_2666_1589"/>
<feBlend mode="normal" in="SourceGraphic" in2="effect1_dropShadow_2666_1589" result="shape"/>
</filter>
<filter id="filter5_d_2666_1589" x="219" y="219" width="1075" height="257.5" filterUnits="userSpaceOnUse" color-interpolation-filters="sRGB">
<feFlood flood-opacity="0" result="BackgroundImageFix"/>
<feColorMatrix in="SourceAlpha" type="matrix" values="0 0 0 0 0 0 0 0 0 0 0 0 0 0 0 0 0 0 127 0" result="hardAlpha"/>
<feOffset dx="4" dy="4"/>
<feGaussianBlur stdDeviation="5"/>
<feComposite in2="hardAlpha" operator="out"/>
<feColorMatrix type="matrix" values="0 0 0 0 0 0 0 0 0 0 0 0 0 0 0 0 0 0 0.06 0"/>
<feBlend mode="normal" in2="BackgroundImageFix" result="effect1_dropShadow_2666_1589"/>
<feBlend mode="normal" in="SourceGraphic" in2="effect1_dropShadow_2666_1589" result="shape"/>
</filter>
<filter id="filter6_d_2666_1589" x="219" y="476.5" width="1075" height="257.5" filterUnits="userSpaceOnUse" color-interpolation-filters="sRGB">
<feFlood flood-opacity="0" result="BackgroundImageFix"/>
<feColorMatrix in="SourceAlpha" type="matrix" values="0 0 0 0 0 0 0 0 0 0 0 0 0 0 0 0 0 0 127 0" result="hardAlpha"/>
<feOffset dx="4" dy="4"/>
<feGaussianBlur stdDeviation="5"/>
<feComposite in2="hardAlpha" operator="out"/>
<feColorMatrix type="matrix" values="0 0 0 0 0 0 0 0 0 0 0 0 0 0 0 0 0 0 0.06 0"/>
<feBlend mode="normal" in2="BackgroundImageFix" result="effect1_dropShadow_2666_1589"/>
<feBlend mode="normal" in="SourceGraphic" in2="effect1_dropShadow_2666_1589" result="shape"/>
</filter>
<clipPath id="clip0_2666_1589">
<rect width="1340" height="780" fill="white"/>
</clipPath>
<clipPath id="clip1_2666_1589">
<rect x="30" y="30" width="1280" height="720" rx="25" fill="white"/>
</clipPath>
</defs>
</svg>
