<svg width="1340" height="780" viewBox="0 0 1340 780" fill="none" xmlns="http://www.w3.org/2000/svg">
<g clip-path="url(#clip0_2666_1528)">
<rect width="1340" height="780" fill="#C9CED9"/>
<g filter="url(#filter0_d_2666_1528)">
<g clip-path="url(#clip1_2666_1528)">
<rect x="30" y="30" width="1280" height="720" rx="25" fill="#0F123F"/>
<rect width="180" height="720" transform="translate(30 40)" fill="#0F123F"/>
<rect x="40" y="153" width="160" height="35" rx="5" fill="#AF90EB"/>
<path d="M50 171.167H47.3334C47.1565 171.167 46.987 171.237 46.8619 171.362C46.7369 171.487 46.6667 171.657 46.6667 171.833V177.167C46.6667 177.343 46.7369 177.513 46.8619 177.638C46.987 177.763 47.1565 177.833 47.3334 177.833H50C50.1768 177.833 50.3464 177.763 50.4714 177.638C50.5964 177.513 50.6667 177.343 50.6667 177.167V171.833C50.6667 171.657 50.5964 171.487 50.4714 171.362C50.3464 171.237 50.1768 171.167 50 171.167ZM49.3334 176.5H48V172.5H49.3334V176.5ZM60.6667 168.5H58C57.8232 168.5 57.6536 168.57 57.5286 168.695C57.4036 168.82 57.3334 168.99 57.3334 169.167V177.167C57.3334 177.343 57.4036 177.513 57.5286 177.638C57.6536 177.763 57.8232 177.833 58 177.833H60.6667C60.8435 177.833 61.0131 177.763 61.1381 177.638C61.2631 177.513 61.3334 177.343 61.3334 177.167V169.167C61.3334 168.99 61.2631 168.82 61.1381 168.695C61.0131 168.57 60.8435 168.5 60.6667 168.5ZM60 176.5H58.6667V169.833H60V176.5ZM55.3334 163.167H52.6667C52.4899 163.167 52.3203 163.237 52.1953 163.362C52.0703 163.487 52 163.657 52 163.833V177.167C52 177.343 52.0703 177.513 52.1953 177.638C52.3203 177.763 52.4899 177.833 52.6667 177.833H55.3334C55.5102 177.833 55.6797 177.763 55.8048 177.638C55.9298 177.513 56 177.343 56 177.167V163.833C56 163.657 55.9298 163.487 55.8048 163.362C55.6797 163.237 55.5102 163.167 55.3334 163.167ZM54.6667 176.5H53.3334V164.5H54.6667V176.5Z" fill="white"/>
<path d="M77.9395 175H76.4102L75.6543 172.861H72.3496L71.623 175H70.0996L73.2461 166.598H74.8164L77.9395 175ZM75.2852 171.725L74.1191 168.373C74.084 168.264 74.0469 168.088 74.0078 167.846H73.9844C73.9492 168.068 73.9102 168.244 73.8672 168.373L72.7129 171.725H75.2852ZM84.291 175H82.9316V171.619C82.9316 170.498 82.5352 169.938 81.7422 169.938C81.3281 169.938 80.9863 170.094 80.7168 170.406C80.4473 170.715 80.3125 171.105 80.3125 171.578V175H78.9473V169H80.3125V169.996H80.3359C80.7852 169.238 81.4336 168.859 82.2812 168.859C82.9336 168.859 83.4316 169.072 83.7754 169.498C84.1191 169.92 84.291 170.531 84.291 171.332V175ZM90.5605 175H89.2422V174.062H89.2188C88.8047 174.781 88.1973 175.141 87.3965 175.141C86.8066 175.141 86.3438 174.98 86.0078 174.66C85.6758 174.34 85.5098 173.916 85.5098 173.389C85.5098 172.256 86.1621 171.596 87.4668 171.408L89.248 171.156C89.248 170.301 88.8418 169.873 88.0293 169.873C87.3145 169.873 86.6699 170.119 86.0957 170.611V169.422C86.7285 169.047 87.459 168.859 88.2871 168.859C89.8027 168.859 90.5605 169.605 90.5605 171.098V175ZM89.248 172.053L87.9883 172.229C87.5977 172.279 87.3027 172.375 87.1035 172.516C86.9082 172.652 86.8105 172.895 86.8105 173.242C86.8105 173.496 86.9004 173.705 87.0801 173.869C87.2637 174.029 87.5078 174.109 87.8125 174.109C88.2266 174.109 88.5684 173.965 88.8379 173.676C89.1113 173.383 89.248 173.016 89.248 172.574V172.053ZM89.9219 165.941L88.2461 167.863H87.2383L88.6562 165.941H89.9219ZM93.5898 175H92.2246V166.117H93.5898V175ZM96.0508 167.74C95.8281 167.74 95.6367 167.668 95.4766 167.523C95.3203 167.379 95.2422 167.195 95.2422 166.973C95.2422 166.75 95.3203 166.564 95.4766 166.416C95.6367 166.268 95.8281 166.193 96.0508 166.193C96.2812 166.193 96.4766 166.268 96.6367 166.416C96.7969 166.564 96.877 166.75 96.877 166.973C96.877 167.184 96.7969 167.365 96.6367 167.518C96.4766 167.666 96.2812 167.74 96.0508 167.74ZM96.7246 175H95.3652V169H96.7246V175ZM98.1309 174.812V173.553C98.6387 173.939 99.1992 174.133 99.8125 174.133C100.633 174.133 101.043 173.891 101.043 173.406C101.043 173.27 101.008 173.154 100.938 173.061C100.867 172.963 100.771 172.877 100.65 172.803C100.533 172.729 100.393 172.662 100.229 172.604C100.068 172.545 99.8887 172.479 99.6895 172.404C99.4434 172.307 99.2207 172.203 99.0215 172.094C98.8262 171.984 98.6621 171.861 98.5293 171.725C98.4004 171.584 98.3027 171.426 98.2363 171.25C98.1699 171.074 98.1367 170.869 98.1367 170.635C98.1367 170.346 98.2051 170.092 98.3418 169.873C98.4785 169.65 98.6621 169.465 98.8926 169.316C99.123 169.164 99.3848 169.051 99.6777 168.977C99.9707 168.898 100.273 168.859 100.586 168.859C101.141 168.859 101.637 168.943 102.074 169.111V170.301C101.652 170.012 101.168 169.867 100.621 169.867C100.449 169.867 100.293 169.885 100.152 169.92C100.016 169.955 99.8984 170.004 99.8008 170.066C99.7031 170.129 99.627 170.205 99.5723 170.295C99.5176 170.381 99.4902 170.477 99.4902 170.582C99.4902 170.711 99.5176 170.82 99.5723 170.91C99.627 171 99.707 171.08 99.8125 171.15C99.9219 171.217 100.051 171.279 100.199 171.338C100.352 171.393 100.525 171.453 100.721 171.52C100.979 171.625 101.209 171.732 101.412 171.842C101.619 171.951 101.795 172.076 101.939 172.217C102.084 172.354 102.195 172.514 102.273 172.697C102.352 172.877 102.391 173.092 102.391 173.342C102.391 173.646 102.32 173.912 102.18 174.139C102.039 174.365 101.852 174.553 101.617 174.701C101.383 174.85 101.111 174.959 100.803 175.029C100.498 175.104 100.176 175.141 99.8359 175.141C99.1797 175.141 98.6113 175.031 98.1309 174.812ZM108.766 172.369H104.676C104.691 172.924 104.861 173.352 105.186 173.652C105.514 173.953 105.963 174.104 106.533 174.104C107.174 174.104 107.762 173.912 108.297 173.529V174.625C107.75 174.969 107.027 175.141 106.129 175.141C105.246 175.141 104.553 174.869 104.049 174.326C103.549 173.779 103.299 173.012 103.299 172.023C103.299 171.09 103.574 170.33 104.125 169.744C104.68 169.154 105.367 168.859 106.188 168.859C107.008 168.859 107.643 169.123 108.092 169.65C108.541 170.178 108.766 170.91 108.766 171.848V172.369ZM107.453 171.408C107.449 170.92 107.334 170.541 107.107 170.271C106.881 169.998 106.568 169.861 106.17 169.861C105.779 169.861 105.447 170.004 105.174 170.289C104.904 170.574 104.738 170.947 104.676 171.408H107.453ZM120.074 174.426C119.199 174.902 118.225 175.141 117.15 175.141C115.908 175.141 114.902 174.754 114.133 173.98C113.363 173.207 112.979 172.184 112.979 170.91C112.979 169.609 113.398 168.543 114.238 167.711C115.082 166.875 116.152 166.457 117.449 166.457C118.383 166.457 119.168 166.594 119.805 166.867V168.303C119.16 167.873 118.393 167.658 117.502 167.658C116.607 167.658 115.873 167.953 115.299 168.543C114.729 169.133 114.443 169.896 114.443 170.834C114.443 171.799 114.689 172.559 115.182 173.113C115.674 173.664 116.342 173.939 117.186 173.939C117.764 173.939 118.264 173.828 118.686 173.605V171.607H116.916V170.436H120.074V174.426ZM126.812 172.369H122.723C122.738 172.924 122.908 173.352 123.232 173.652C123.561 173.953 124.01 174.104 124.58 174.104C125.221 174.104 125.809 173.912 126.344 173.529V174.625C125.797 174.969 125.074 175.141 124.176 175.141C123.293 175.141 122.6 174.869 122.096 174.326C121.596 173.779 121.346 173.012 121.346 172.023C121.346 171.09 121.621 170.33 122.172 169.744C122.727 169.154 123.414 168.859 124.234 168.859C125.055 168.859 125.689 169.123 126.139 169.65C126.588 170.178 126.812 170.91 126.812 171.848V172.369ZM125.5 171.408C125.496 170.92 125.381 170.541 125.154 170.271C124.928 169.998 124.615 169.861 124.217 169.861C123.826 169.861 123.494 170.004 123.221 170.289C122.951 170.574 122.785 170.947 122.723 171.408H125.5ZM131.588 170.295C131.424 170.166 131.188 170.102 130.879 170.102C130.477 170.102 130.141 170.283 129.871 170.646C129.602 171.01 129.467 171.504 129.467 172.129V175H128.107V169H129.467V170.236H129.49C129.623 169.814 129.826 169.486 130.1 169.252C130.377 169.014 130.686 168.895 131.025 168.895C131.271 168.895 131.459 168.932 131.588 169.006V170.295ZM137.154 175H135.836V174.062H135.812C135.398 174.781 134.791 175.141 133.99 175.141C133.4 175.141 132.938 174.98 132.602 174.66C132.27 174.34 132.104 173.916 132.104 173.389C132.104 172.256 132.756 171.596 134.061 171.408L135.842 171.156C135.842 170.301 135.436 169.873 134.623 169.873C133.908 169.873 133.264 170.119 132.689 170.611V169.422C133.322 169.047 134.053 168.859 134.881 168.859C136.396 168.859 137.154 169.605 137.154 171.098V175ZM135.842 172.053L134.582 172.229C134.191 172.279 133.896 172.375 133.697 172.516C133.502 172.652 133.404 172.895 133.404 173.242C133.404 173.496 133.494 173.705 133.674 173.869C133.857 174.029 134.102 174.109 134.406 174.109C134.82 174.109 135.162 173.965 135.432 173.676C135.705 173.383 135.842 173.016 135.842 172.574V172.053ZM140.184 175H138.818V166.117H140.184V175Z" fill="white"/>
<path d="M60 214.833H59.3333V207.5C59.3333 207.323 59.2631 207.154 59.1381 207.029C59.013 206.904 58.8435 206.833 58.6666 206.833H49.3333C49.1565 206.833 48.9869 206.904 48.8619 207.029C48.7369 207.154 48.6666 207.323 48.6666 207.5V214.833H48C47.8232 214.833 47.6536 214.904 47.5286 215.029C47.4036 215.154 47.3333 215.323 47.3333 215.5C47.3333 215.677 47.4036 215.846 47.5286 215.971C47.6536 216.096 47.8232 216.167 48 216.167H53.3333V216.933L50.3 218.933C50.1755 219.01 50.0799 219.126 50.0278 219.263C49.9758 219.4 49.9701 219.55 50.0118 219.69C50.0535 219.83 50.1403 219.953 50.2586 220.039C50.3769 220.125 50.5203 220.17 50.6666 220.167C50.7977 220.168 50.926 220.129 51.0333 220.053L53.3333 218.533V219.5C53.3333 219.677 53.4036 219.846 53.5286 219.971C53.6536 220.096 53.8232 220.167 54 220.167C54.1768 220.167 54.3464 220.096 54.4714 219.971C54.5964 219.846 54.6666 219.677 54.6666 219.5V218.533L56.9666 220.053C57.074 220.129 57.2022 220.168 57.3333 220.167C57.4757 220.166 57.6141 220.119 57.728 220.033C57.842 219.948 57.9256 219.828 57.9666 219.692C58.0076 219.555 58.0038 219.41 57.9559 219.275C57.9079 219.141 57.8182 219.026 57.7 218.947L54.6666 216.947V216.167H60C60.1768 216.167 60.3464 216.096 60.4714 215.971C60.5964 215.846 60.6666 215.677 60.6666 215.5C60.6666 215.323 60.5964 215.154 60.4714 215.029C60.3464 214.904 60.1768 214.833 60 214.833ZM58 214.833H50V208.167H58V214.833ZM52 213.5C52.1098 213.499 52.2177 213.472 52.3143 213.419C52.4108 213.367 52.4929 213.292 52.5533 213.2L53.44 211.867L54.1933 212.627C54.2633 212.697 54.348 212.751 54.4415 212.784C54.5349 212.818 54.6346 212.83 54.7333 212.82C54.8316 212.809 54.9263 212.777 55.0104 212.725C55.0946 212.673 55.1662 212.603 55.22 212.52L56.5533 210.52C56.6318 210.374 56.6529 210.203 56.6123 210.042C56.5718 209.881 56.4725 209.741 56.3341 209.649C56.1956 209.557 56.0279 209.521 55.8637 209.546C55.6996 209.571 55.5508 209.657 55.4466 209.787L54.56 211.12L53.8066 210.36C53.7367 210.29 53.6519 210.236 53.5585 210.202C53.4651 210.169 53.3654 210.157 53.2666 210.167C53.1684 210.177 53.0737 210.21 52.9895 210.262C52.9054 210.314 52.8338 210.384 52.78 210.467L51.4466 212.467C51.3502 212.614 51.3156 212.793 51.3506 212.965C51.3856 213.137 51.4872 213.289 51.6333 213.387C51.7407 213.462 51.8689 213.501 52 213.5V213.5Z" fill="white"/>
<path d="M71.0371 218V209.598H73.4629C76.5605 209.598 78.1094 210.963 78.1094 213.693C78.1094 214.99 77.6797 216.033 76.8203 216.822C75.9609 217.607 74.8086 218 73.3633 218H71.0371ZM72.4258 210.781V216.822H73.5391C74.5195 216.822 75.2812 216.553 75.8242 216.014C76.3711 215.475 76.6445 214.713 76.6445 213.729C76.6445 211.764 75.627 210.781 73.5918 210.781H72.4258ZM84.5781 215.369H80.4883C80.5039 215.924 80.6738 216.352 80.998 216.652C81.3262 216.953 81.7754 217.104 82.3457 217.104C82.9863 217.104 83.5742 216.912 84.1094 216.529V217.625C83.5625 217.969 82.8398 218.141 81.9414 218.141C81.0586 218.141 80.3652 217.869 79.8613 217.326C79.3613 216.779 79.1113 216.012 79.1113 215.023C79.1113 214.09 79.3867 213.33 79.9375 212.744C80.4922 212.154 81.1797 211.859 82 211.859C82.8203 211.859 83.4551 212.123 83.9043 212.65C84.3535 213.178 84.5781 213.91 84.5781 214.848V215.369ZM83.2656 214.408C83.2617 213.92 83.1465 213.541 82.9199 213.271C82.6934 212.998 82.3809 212.861 81.9824 212.861C81.5918 212.861 81.2598 213.004 80.9863 213.289C80.7168 213.574 80.5508 213.947 80.4883 214.408H83.2656ZM89.0371 217.936C88.7715 218.068 88.4219 218.135 87.9883 218.135C86.8242 218.135 86.2422 217.576 86.2422 216.459V213.066H85.2402V212H86.2422V210.611L87.6016 210.225V212H89.0371V213.066H87.6016V216.066C87.6016 216.422 87.666 216.676 87.7949 216.828C87.9238 216.98 88.1387 217.057 88.4395 217.057C88.6699 217.057 88.8691 216.99 89.0371 216.857V217.936ZM94.8145 218H93.4961V217.062H93.4727C93.0586 217.781 92.4512 218.141 91.6504 218.141C91.0605 218.141 90.5977 217.98 90.2617 217.66C89.9297 217.34 89.7637 216.916 89.7637 216.389C89.7637 215.256 90.416 214.596 91.7207 214.408L93.502 214.156C93.502 213.301 93.0957 212.873 92.2832 212.873C91.5684 212.873 90.9238 213.119 90.3496 213.611V212.422C90.9824 212.047 91.7129 211.859 92.541 211.859C94.0566 211.859 94.8145 212.605 94.8145 214.098V218ZM93.502 215.053L92.2422 215.229C91.8516 215.279 91.5566 215.375 91.3574 215.516C91.1621 215.652 91.0645 215.895 91.0645 216.242C91.0645 216.496 91.1543 216.705 91.334 216.869C91.5176 217.029 91.7617 217.109 92.0664 217.109C92.4805 217.109 92.8223 216.965 93.0918 216.676C93.3652 216.383 93.502 216.016 93.502 215.574V215.053ZM97.8438 218H96.4785V209.117H97.8438V218ZM104.951 218H103.592V214.719C103.592 213.531 103.195 212.938 102.402 212.938C102.004 212.938 101.668 213.109 101.395 213.453C101.121 213.797 100.984 214.236 100.984 214.771V218H99.6191V209.117H100.984V212.996H101.008C101.461 212.238 102.109 211.859 102.953 211.859C104.285 211.859 104.951 212.674 104.951 214.303V218ZM111.209 218H109.891V217.062H109.867C109.453 217.781 108.846 218.141 108.045 218.141C107.455 218.141 106.992 217.98 106.656 217.66C106.324 217.34 106.158 216.916 106.158 216.389C106.158 215.256 106.811 214.596 108.115 214.408L109.896 214.156C109.896 213.301 109.49 212.873 108.678 212.873C107.963 212.873 107.318 213.119 106.744 213.611V212.422C107.377 212.047 108.107 211.859 108.936 211.859C110.451 211.859 111.209 212.605 111.209 214.098V218ZM109.896 215.053L108.637 215.229C108.246 215.279 107.951 215.375 107.752 215.516C107.557 215.652 107.459 215.895 107.459 216.242C107.459 216.496 107.549 216.705 107.729 216.869C107.912 217.029 108.156 217.109 108.461 217.109C108.875 217.109 109.217 216.965 109.486 216.676C109.76 216.383 109.896 216.016 109.896 215.574V215.053ZM121.844 218H120.484V214.73C120.484 214.102 120.395 213.646 120.215 213.365C120.039 213.084 119.74 212.943 119.318 212.943C118.963 212.943 118.66 213.121 118.41 213.477C118.164 213.832 118.041 214.258 118.041 214.754V218H116.676V214.619C116.676 213.502 116.281 212.943 115.492 212.943C115.125 212.943 114.822 213.111 114.584 213.447C114.35 213.783 114.232 214.219 114.232 214.754V218H112.873V212H114.232V212.949H114.256C114.689 212.223 115.32 211.859 116.148 211.859C116.562 211.859 116.924 211.975 117.232 212.205C117.545 212.432 117.758 212.73 117.871 213.102C118.316 212.273 118.98 211.859 119.863 211.859C121.184 211.859 121.844 212.674 121.844 214.303V218ZM128.582 215.369H124.492C124.508 215.924 124.678 216.352 125.002 216.652C125.33 216.953 125.779 217.104 126.35 217.104C126.99 217.104 127.578 216.912 128.113 216.529V217.625C127.566 217.969 126.844 218.141 125.945 218.141C125.062 218.141 124.369 217.869 123.865 217.326C123.365 216.779 123.115 216.012 123.115 215.023C123.115 214.09 123.391 213.33 123.941 212.744C124.496 212.154 125.184 211.859 126.004 211.859C126.824 211.859 127.459 212.123 127.908 212.65C128.357 213.178 128.582 213.91 128.582 214.848V215.369ZM127.27 214.408C127.266 213.92 127.15 213.541 126.924 213.271C126.697 212.998 126.385 212.861 125.986 212.861C125.596 212.861 125.264 213.004 124.99 213.289C124.721 213.574 124.555 213.947 124.492 214.408H127.27ZM135.221 218H133.861V214.619C133.861 213.498 133.465 212.938 132.672 212.938C132.258 212.938 131.916 213.094 131.646 213.406C131.377 213.715 131.242 214.105 131.242 214.578V218H129.877V212H131.242V212.996H131.266C131.715 212.238 132.363 211.859 133.211 211.859C133.863 211.859 134.361 212.072 134.705 212.498C135.049 212.92 135.221 213.531 135.221 214.332V218ZM140.049 217.936C139.783 218.068 139.434 218.135 139 218.135C137.836 218.135 137.254 217.576 137.254 216.459V213.066H136.252V212H137.254V210.611L138.613 210.225V212H140.049V213.066H138.613V216.066C138.613 216.422 138.678 216.676 138.807 216.828C138.936 216.98 139.15 217.057 139.451 217.057C139.682 217.057 139.881 216.99 140.049 216.857V217.936ZM143.811 218.141C142.885 218.141 142.145 217.861 141.59 217.303C141.039 216.74 140.764 215.996 140.764 215.07C140.764 214.062 141.051 213.275 141.625 212.709C142.203 212.143 142.98 211.859 143.957 211.859C144.895 211.859 145.625 212.135 146.148 212.686C146.672 213.236 146.934 214 146.934 214.977C146.934 215.934 146.65 216.701 146.084 217.279C145.521 217.854 144.764 218.141 143.811 218.141ZM143.875 212.943C143.344 212.943 142.924 213.129 142.615 213.5C142.307 213.871 142.152 214.383 142.152 215.035C142.152 215.664 142.309 216.16 142.621 216.523C142.934 216.883 143.352 217.062 143.875 217.062C144.41 217.062 144.82 216.885 145.105 216.529C145.395 216.174 145.539 215.668 145.539 215.012C145.539 214.352 145.395 213.842 145.105 213.482C144.82 213.123 144.41 212.943 143.875 212.943Z" fill="#C4C4C4"/>
<path d="M60.3281 97V85.7969H64.2969C68.276 85.7969 70.2656 87.6172 70.2656 91.2578C70.2656 93.0026 69.7214 94.3958 68.6328 95.4375C67.5495 96.4792 66.1042 97 64.2969 97H60.3281ZM62.8516 87.8516V94.9531H64.1016C65.1953 94.9531 66.0521 94.625 66.6719 93.9688C67.2969 93.3125 67.6094 92.4193 67.6094 91.2891C67.6094 90.2214 67.2995 89.3828 66.6797 88.7734C66.0651 88.1589 65.2005 87.8516 64.0859 87.8516H62.8516ZM81.7266 97H78.9766L78.1797 94.5078H74.1953L73.4062 97H70.6719L74.75 85.7969H77.7422L81.7266 97ZM77.6016 92.5703L76.3984 88.8047C76.3099 88.5234 76.2474 88.1875 76.2109 87.7969H76.1484C76.1224 88.125 76.0573 88.4505 75.9531 88.7734L74.7344 92.5703H77.6016ZM82.6094 96.5703V94.0703C83.0625 94.4505 83.5547 94.737 84.0859 94.9297C84.6172 95.1172 85.1536 95.2109 85.6953 95.2109C86.013 95.2109 86.2891 95.1823 86.5234 95.125C86.763 95.0677 86.9609 94.9896 87.1172 94.8906C87.2786 94.7865 87.3984 94.6667 87.4766 94.5312C87.5547 94.3906 87.5938 94.2396 87.5938 94.0781C87.5938 93.8594 87.5312 93.6641 87.4062 93.4922C87.2812 93.3203 87.1094 93.1615 86.8906 93.0156C86.6771 92.8698 86.4219 92.7292 86.125 92.5938C85.8281 92.4583 85.5078 92.3203 85.1641 92.1797C84.2891 91.8151 83.6354 91.3698 83.2031 90.8438C82.776 90.3177 82.5625 89.6823 82.5625 88.9375C82.5625 88.3542 82.6797 87.8542 82.9141 87.4375C83.1484 87.0156 83.4661 86.6693 83.8672 86.3984C84.2734 86.1276 84.7422 85.9297 85.2734 85.8047C85.8047 85.6745 86.3672 85.6094 86.9609 85.6094C87.5443 85.6094 88.0599 85.6458 88.5078 85.7188C88.9609 85.7865 89.3776 85.8932 89.7578 86.0391V88.375C89.5703 88.2448 89.3646 88.1302 89.1406 88.0312C88.9219 87.9323 88.6953 87.8516 88.4609 87.7891C88.2266 87.7214 87.9922 87.6719 87.7578 87.6406C87.5286 87.6094 87.3099 87.5938 87.1016 87.5938C86.8151 87.5938 86.5547 87.6224 86.3203 87.6797C86.0859 87.7318 85.888 87.8073 85.7266 87.9062C85.5651 88.0052 85.4401 88.125 85.3516 88.2656C85.263 88.401 85.2188 88.5547 85.2188 88.7266C85.2188 88.9141 85.2682 89.0833 85.3672 89.2344C85.4661 89.3802 85.6068 89.5208 85.7891 89.6562C85.9714 89.7865 86.1927 89.9167 86.4531 90.0469C86.7135 90.1719 87.0078 90.3021 87.3359 90.4375C87.7839 90.625 88.1849 90.8255 88.5391 91.0391C88.8984 91.2474 89.2057 91.4844 89.4609 91.75C89.7161 92.0156 89.9115 92.3203 90.0469 92.6641C90.1823 93.0026 90.25 93.3984 90.25 93.8516C90.25 94.4766 90.1302 95.0026 89.8906 95.4297C89.6562 95.8516 89.3359 96.1953 88.9297 96.4609C88.5234 96.7214 88.0495 96.9089 87.5078 97.0234C86.9714 97.138 86.4036 97.1953 85.8047 97.1953C85.1901 97.1953 84.6042 97.1432 84.0469 97.0391C83.4948 96.9349 83.0156 96.7786 82.6094 96.5703ZM101.789 97H99.2578V92.4375H94.6172V97H92.0938V85.7969H94.6172V90.2656H99.2578V85.7969H101.789V97ZM104.359 97V85.7969H108.438C109.688 85.7969 110.648 86.026 111.32 86.4844C111.992 86.9427 112.328 87.5885 112.328 88.4219C112.328 89.026 112.122 89.5547 111.711 90.0078C111.305 90.4609 110.784 90.776 110.148 90.9531V90.9844C110.945 91.0833 111.581 91.3776 112.055 91.8672C112.534 92.3568 112.773 92.9531 112.773 93.6562C112.773 94.6823 112.406 95.4974 111.672 96.1016C110.938 96.7005 109.935 97 108.664 97H104.359ZM106.883 87.6562V90.3125H107.992C108.513 90.3125 108.922 90.1875 109.219 89.9375C109.521 89.6823 109.672 89.3333 109.672 88.8906C109.672 88.0677 109.057 87.6562 107.828 87.6562H106.883ZM106.883 92.1875V95.1406H108.25C108.833 95.1406 109.289 95.0052 109.617 94.7344C109.951 94.4635 110.117 94.0938 110.117 93.625C110.117 93.1771 109.953 92.8255 109.625 92.5703C109.302 92.3151 108.849 92.1875 108.266 92.1875H106.883ZM119.359 97.1953C117.755 97.1953 116.448 96.6745 115.438 95.6328C114.427 94.5859 113.922 93.224 113.922 91.5469C113.922 89.776 114.435 88.3438 115.461 87.25C116.487 86.1562 117.846 85.6094 119.539 85.6094C121.138 85.6094 122.43 86.1328 123.414 87.1797C124.404 88.2266 124.898 89.6068 124.898 91.3203C124.898 93.0807 124.385 94.5 123.359 95.5781C122.339 96.6562 121.005 97.1953 119.359 97.1953ZM119.469 87.7812C118.583 87.7812 117.88 88.1146 117.359 88.7812C116.839 89.4427 116.578 90.3203 116.578 91.4141C116.578 92.5234 116.839 93.401 117.359 94.0469C117.88 94.6927 118.562 95.0156 119.406 95.0156C120.276 95.0156 120.966 94.7031 121.477 94.0781C121.987 93.4479 122.242 92.5755 122.242 91.4609C122.242 90.2995 121.995 89.3958 121.5 88.75C121.005 88.1042 120.328 87.7812 119.469 87.7812ZM136.367 97H133.617L132.82 94.5078H128.836L128.047 97H125.312L129.391 85.7969H132.383L136.367 97ZM132.242 92.5703L131.039 88.8047C130.951 88.5234 130.888 88.1875 130.852 87.7969H130.789C130.763 88.125 130.698 88.4505 130.594 88.7734L129.375 92.5703H132.242ZM147.164 97H144.266L142.523 94.1172C142.393 93.8984 142.268 93.7031 142.148 93.5312C142.029 93.3594 141.906 93.2135 141.781 93.0938C141.661 92.9688 141.534 92.875 141.398 92.8125C141.268 92.7448 141.125 92.7109 140.969 92.7109H140.289V97H137.766V85.7969H141.766C144.484 85.7969 145.844 86.8125 145.844 88.8438C145.844 89.2344 145.784 89.5964 145.664 89.9297C145.544 90.2578 145.375 90.5547 145.156 90.8203C144.938 91.0859 144.672 91.3151 144.359 91.5078C144.052 91.7005 143.708 91.8516 143.328 91.9609V91.9922C143.495 92.0443 143.656 92.1302 143.812 92.25C143.969 92.3646 144.12 92.5 144.266 92.6562C144.411 92.8125 144.549 92.9818 144.68 93.1641C144.815 93.3411 144.938 93.5156 145.047 93.6875L147.164 97ZM140.289 87.6875V90.8047H141.383C141.924 90.8047 142.359 90.6484 142.688 90.3359C143.021 90.0182 143.188 89.625 143.188 89.1562C143.188 88.1771 142.602 87.6875 141.43 87.6875H140.289ZM148.219 97V85.7969H152.188C156.167 85.7969 158.156 87.6172 158.156 91.2578C158.156 93.0026 157.612 94.3958 156.523 95.4375C155.44 96.4792 153.995 97 152.188 97H148.219ZM150.742 87.8516V94.9531H151.992C153.086 94.9531 153.943 94.625 154.562 93.9688C155.188 93.3125 155.5 92.4193 155.5 91.2891C155.5 90.2214 155.19 89.3828 154.57 88.7734C153.956 88.1589 153.091 87.8516 151.977 87.8516H150.742ZM66.8047 108.852H62.8516V111.602H66.4844V113.648H62.8516V118H60.3281V106.797H66.8047V108.852ZM71.1797 118H68.6562V106.797H71.1797V118ZM83.8125 118H81.2656L76.6484 110.961C76.3776 110.549 76.1901 110.24 76.0859 110.031H76.0547C76.0964 110.427 76.1172 111.031 76.1172 111.844V118H73.7344V106.797H76.4531L80.8984 113.617C81.1016 113.924 81.2891 114.229 81.4609 114.531H81.4922C81.4505 114.271 81.4297 113.758 81.4297 112.992V106.797H83.8125V118ZM96.2266 118H93.4766L92.6797 115.508H88.6953L87.9062 118H85.1719L89.25 106.797H92.2422L96.2266 118ZM92.1016 113.57L90.8984 109.805C90.8099 109.523 90.7474 109.188 90.7109 108.797H90.6484C90.6224 109.125 90.5573 109.451 90.4531 109.773L89.2344 113.57H92.1016ZM107.703 118H105.156L100.539 110.961C100.268 110.549 100.081 110.24 99.9766 110.031H99.9453C99.987 110.427 100.008 111.031 100.008 111.844V118H97.625V106.797H100.344L104.789 113.617C104.992 113.924 105.18 114.229 105.352 114.531H105.383C105.341 114.271 105.32 113.758 105.32 112.992V106.797H107.703V118ZM118.297 117.602C117.479 117.997 116.411 118.195 115.094 118.195C113.375 118.195 112.023 117.69 111.039 116.68C110.055 115.669 109.562 114.323 109.562 112.641C109.562 110.849 110.115 109.396 111.219 108.281C112.328 107.167 113.766 106.609 115.531 106.609C116.625 106.609 117.547 106.747 118.297 107.023V109.453C117.547 109.005 116.693 108.781 115.734 108.781C114.682 108.781 113.833 109.112 113.188 109.773C112.542 110.435 112.219 111.331 112.219 112.461C112.219 113.544 112.523 114.409 113.133 115.055C113.742 115.695 114.562 116.016 115.594 116.016C116.578 116.016 117.479 115.776 118.297 115.297V117.602ZM126.969 118H120.25V106.797H126.711V108.852H122.773V111.344H126.438V113.391H122.773V115.953H126.969V118ZM131.289 118H128.766V106.797H131.289V118ZM143.242 118H140.344L138.602 115.117C138.471 114.898 138.346 114.703 138.227 114.531C138.107 114.359 137.984 114.214 137.859 114.094C137.74 113.969 137.612 113.875 137.477 113.812C137.346 113.745 137.203 113.711 137.047 113.711H136.367V118H133.844V106.797H137.844C140.562 106.797 141.922 107.812 141.922 109.844C141.922 110.234 141.862 110.596 141.742 110.93C141.622 111.258 141.453 111.555 141.234 111.82C141.016 112.086 140.75 112.315 140.438 112.508C140.13 112.701 139.786 112.852 139.406 112.961V112.992C139.573 113.044 139.734 113.13 139.891 113.25C140.047 113.365 140.198 113.5 140.344 113.656C140.49 113.812 140.628 113.982 140.758 114.164C140.893 114.341 141.016 114.516 141.125 114.688L143.242 118ZM136.367 108.688V111.805H137.461C138.003 111.805 138.438 111.648 138.766 111.336C139.099 111.018 139.266 110.625 139.266 110.156C139.266 109.177 138.68 108.688 137.508 108.688H136.367ZM148.875 118.195C147.271 118.195 145.964 117.674 144.953 116.633C143.943 115.586 143.438 114.224 143.438 112.547C143.438 110.776 143.951 109.344 144.977 108.25C146.003 107.156 147.362 106.609 149.055 106.609C150.654 106.609 151.945 107.133 152.93 108.18C153.919 109.227 154.414 110.607 154.414 112.32C154.414 114.081 153.901 115.5 152.875 116.578C151.854 117.656 150.521 118.195 148.875 118.195ZM148.984 108.781C148.099 108.781 147.396 109.115 146.875 109.781C146.354 110.443 146.094 111.32 146.094 112.414C146.094 113.523 146.354 114.401 146.875 115.047C147.396 115.693 148.078 116.016 148.922 116.016C149.792 116.016 150.482 115.703 150.992 115.078C151.503 114.448 151.758 113.576 151.758 112.461C151.758 111.299 151.51 110.396 151.016 109.75C150.521 109.104 149.844 108.781 148.984 108.781Z" fill="white"/>
<rect x="210" y="40" width="1090" height="700" rx="15" fill="#F4F7FC"/>
<g filter="url(#filter1_d_2666_1528)">
<rect x="225" y="225" width="719" height="237.5" rx="10" fill="white" shape-rendering="crispEdges"/>
</g>
<g filter="url(#filter2_d_2666_1528)">
<rect x="225" y="482.5" width="719" height="237.5" rx="10" fill="white" shape-rendering="crispEdges"/>
</g>
<g filter="url(#filter3_d_2666_1528)">
<rect x="964" y="227" width="316" height="493" rx="10" fill="white" shape-rendering="crispEdges"/>
</g>
<rect x="777" y="145" width="24" height="24" rx="5" fill="#C9CED9"/>
<path d="M789 147C787.468 146.997 785.956 147.347 784.58 148.021C783.204 148.695 782.002 149.677 781.066 150.89C780.13 152.103 779.485 153.514 779.181 155.016C778.877 156.518 778.922 158.069 779.313 159.551C779.703 161.032 780.429 162.404 781.434 163.56C782.44 164.717 783.697 165.626 785.11 166.22C786.522 166.813 788.052 167.074 789.581 166.982C791.111 166.89 792.599 166.448 793.93 165.69H794H794.05C795.975 164.594 797.482 162.89 798.334 160.845C799.186 158.8 799.335 156.53 798.757 154.391C798.179 152.252 796.907 150.366 795.141 149.028C793.375 147.691 791.215 146.977 789 147V147ZM790 149.07C791.76 149.293 793.396 150.095 794.65 151.35C795.905 152.604 796.707 154.24 796.93 156H790V149.07ZM789 165C786.975 164.986 785.03 164.205 783.558 162.813C782.086 161.421 781.197 159.523 781.07 157.501C780.943 155.48 781.588 153.485 782.874 151.921C784.16 150.356 785.992 149.337 788 149.07V157C788.004 157.12 788.028 157.238 788.07 157.35V157.43V157.5L792.07 164.37C791.1 164.785 790.055 165 789 165V165ZM793.83 163.36L790.73 158H796.93C796.795 159.055 796.452 160.072 795.92 160.992C795.387 161.912 794.677 162.717 793.83 163.36Z" fill="white"/>
<rect x="512" y="145" width="24" height="24" rx="5" fill="#AF90EB"/>
<path d="M531 157H524V150C524 149.4 523.6 149 523 149C518 149 514 153 514 158C514 163 518 167 523 167C528 167 532 163 532 158C532 157.4 531.6 157 531 157ZM524 164.9C520.2 165.5 516.6 162.8 516.1 159C515.5 155.2 518.2 151.6 522 151.1V158C522 158.6 522.4 159 523 159H529.9C529.5 162.1 527.1 164.5 524 164.9ZM527 147C526.4 147 526 147.4 526 148V154C526 154.6 526.4 155 527 155H533C533.6 155 534 154.6 534 154C534 150.1 530.9 147 527 147ZM528 153V149.1C530 149.5 531.5 151 531.9 153H528Z" fill="white"/>
<rect x="247" y="145" width="24" height="24" rx="5" fill="#172774"/>
<path d="M261 156H260V152H262C262.265 152 262.52 152.105 262.707 152.293C262.895 152.48 263 152.735 263 153C263 153.265 263.105 153.52 263.293 153.707C263.48 153.895 263.735 154 264 154C264.265 154 264.52 153.895 264.707 153.707C264.895 153.52 265 153.265 265 153C265 152.204 264.684 151.441 264.121 150.879C263.559 150.316 262.796 150 262 150H260V148C260 147.735 259.895 147.48 259.707 147.293C259.52 147.105 259.265 147 259 147C258.735 147 258.48 147.105 258.293 147.293C258.105 147.48 258 147.735 258 148V150H257C255.939 150 254.922 150.421 254.172 151.172C253.421 151.922 253 152.939 253 154C253 155.061 253.421 156.078 254.172 156.828C254.922 157.579 255.939 158 257 158H258V162H256C255.735 162 255.48 161.895 255.293 161.707C255.105 161.52 255 161.265 255 161C255 160.735 254.895 160.48 254.707 160.293C254.52 160.105 254.265 160 254 160C253.735 160 253.48 160.105 253.293 160.293C253.105 160.48 253 160.735 253 161C253 161.796 253.316 162.559 253.879 163.121C254.441 163.684 255.204 164 256 164H258V166C258 166.265 258.105 166.52 258.293 166.707C258.48 166.895 258.735 167 259 167C259.265 167 259.52 166.895 259.707 166.707C259.895 166.52 260 166.265 260 166V164H261C262.061 164 263.078 163.579 263.828 162.828C264.579 162.078 265 161.061 265 160C265 158.939 264.579 157.922 263.828 157.172C263.078 156.421 262.061 156 261 156V156ZM258 156H257C256.47 156 255.961 155.789 255.586 155.414C255.211 155.039 255 154.53 255 154C255 153.47 255.211 152.961 255.586 152.586C255.961 152.211 256.47 152 257 152H258V156ZM261 162H260V158H261C261.53 158 262.039 158.211 262.414 158.586C262.789 158.961 263 159.47 263 160C263 160.53 262.789 161.039 262.414 161.414C262.039 161.789 261.53 162 261 162Z" fill="white"/>
</g>
</g>
<rect x="1050" y="145" width="24" height="24" rx="5" fill="#EBAC5B"/>
<path d="M1071.71 152.29C1071.62 152.196 1071.51 152.122 1071.38 152.071C1071.26 152.02 1071.13 151.994 1071 151.994C1070.87 151.994 1070.74 152.02 1070.62 152.071C1070.49 152.122 1070.38 152.196 1070.29 152.29L1064 158.59L1059.71 154.29C1059.62 154.196 1059.51 154.122 1059.38 154.071C1059.26 154.02 1059.13 153.994 1059 153.994C1058.87 153.994 1058.74 154.02 1058.62 154.071C1058.49 154.122 1058.38 154.196 1058.29 154.29L1052.29 160.29C1052.2 160.383 1052.12 160.494 1052.07 160.615C1052.02 160.737 1051.99 160.868 1051.99 161C1051.99 161.132 1052.02 161.263 1052.07 161.385C1052.12 161.506 1052.2 161.617 1052.29 161.71C1052.38 161.804 1052.49 161.878 1052.62 161.929C1052.74 161.98 1052.87 162.006 1053 162.006C1053.13 162.006 1053.26 161.98 1053.38 161.929C1053.51 161.878 1053.62 161.804 1053.71 161.71L1059 156.41L1063.29 160.71C1063.38 160.804 1063.49 160.878 1063.62 160.929C1063.74 160.98 1063.87 161.006 1064 161.006C1064.13 161.006 1064.26 160.98 1064.38 160.929C1064.51 160.878 1064.62 160.804 1064.71 160.71L1071.71 153.71C1071.8 153.617 1071.88 153.506 1071.93 153.385C1071.98 153.263 1072.01 153.132 1072.01 153C1072.01 152.868 1071.98 152.737 1071.93 152.615C1071.88 152.494 1071.8 152.383 1071.71 152.29Z" fill="white"/>
</g>
<defs>
<filter id="filter0_d_2666_1528" x="1" y="1" width="1348" height="788" filterUnits="userSpaceOnUse" color-interpolation-filters="sRGB">
<feFlood flood-opacity="0" result="BackgroundImageFix"/>
<feColorMatrix in="SourceAlpha" type="matrix" values="0 0 0 0 0 0 0 0 0 0 0 0 0 0 0 0 0 0 127 0" result="hardAlpha"/>
<feOffset dx="5" dy="5"/>
<feGaussianBlur stdDeviation="17"/>
<feComposite in2="hardAlpha" operator="out"/>
<feColorMatrix type="matrix" values="0 0 0 0 0 0 0 0 0 0 0 0 0 0 0 0 0 0 0.25 0"/>
<feBlend mode="normal" in2="BackgroundImageFix" result="effect1_dropShadow_2666_1528"/>
<feBlend mode="normal" in="SourceGraphic" in2="effect1_dropShadow_2666_1528" result="shape"/>
</filter>
<filter id="filter1_d_2666_1528" x="219" y="219" width="739" height="257.5" filterUnits="userSpaceOnUse" color-interpolation-filters="sRGB">
<feFlood flood-opacity="0" result="BackgroundImageFix"/>
<feColorMatrix in="SourceAlpha" type="matrix" values="0 0 0 0 0 0 0 0 0 0 0 0 0 0 0 0 0 0 127 0" result="hardAlpha"/>
<feOffset dx="4" dy="4"/>
<feGaussianBlur stdDeviation="5"/>
<feComposite in2="hardAlpha" operator="out"/>
<feColorMatrix type="matrix" values="0 0 0 0 0 0 0 0 0 0 0 0 0 0 0 0 0 0 0.06 0"/>
<feBlend mode="normal" in2="BackgroundImageFix" result="effect1_dropShadow_2666_1528"/>
<feBlend mode="normal" in="SourceGraphic" in2="effect1_dropShadow_2666_1528" result="shape"/>
</filter>
<filter id="filter2_d_2666_1528" x="219" y="476.5" width="739" height="257.5" filterUnits="userSpaceOnUse" color-interpolation-filters="sRGB">
<feFlood flood-opacity="0" result="BackgroundImageFix"/>
<feColorMatrix in="SourceAlpha" type="matrix" values="0 0 0 0 0 0 0 0 0 0 0 0 0 0 0 0 0 0 127 0" result="hardAlpha"/>
<feOffset dx="4" dy="4"/>
<feGaussianBlur stdDeviation="5"/>
<feComposite in2="hardAlpha" operator="out"/>
<feColorMatrix type="matrix" values="0 0 0 0 0 0 0 0 0 0 0 0 0 0 0 0 0 0 0.06 0"/>
<feBlend mode="normal" in2="BackgroundImageFix" result="effect1_dropShadow_2666_1528"/>
<feBlend mode="normal" in="SourceGraphic" in2="effect1_dropShadow_2666_1528" result="shape"/>
</filter>
<filter id="filter3_d_2666_1528" x="958" y="221" width="336" height="513" filterUnits="userSpaceOnUse" color-interpolation-filters="sRGB">
<feFlood flood-opacity="0" result="BackgroundImageFix"/>
<feColorMatrix in="SourceAlpha" type="matrix" values="0 0 0 0 0 0 0 0 0 0 0 0 0 0 0 0 0 0 127 0" result="hardAlpha"/>
<feOffset dx="4" dy="4"/>
<feGaussianBlur stdDeviation="5"/>
<feComposite in2="hardAlpha" operator="out"/>
<feColorMatrix type="matrix" values="0 0 0 0 0 0 0 0 0 0 0 0 0 0 0 0 0 0 0.06 0"/>
<feBlend mode="normal" in2="BackgroundImageFix" result="effect1_dropShadow_2666_1528"/>
<feBlend mode="normal" in="SourceGraphic" in2="effect1_dropShadow_2666_1528" result="shape"/>
</filter>
<clipPath id="clip0_2666_1528">
<rect width="1340" height="780" fill="white"/>
</clipPath>
<clipPath id="clip1_2666_1528">
<rect x="30" y="30" width="1280" height="720" rx="25" fill="white"/>
</clipPath>
</defs>
</svg>
